<svg width="280" height="24" viewBox="0 0 280 24" fill="none" xmlns="http://www.w3.org/2000/svg">
<g clip-path="url(#clip0_1_505)">
<path d="M20.418 19.7904H16.8624L16.7784 13.4736C16.7784 13.4736 16.8624 11.7888 15.0324 11.8104C13.2036 11.8308 12.9396 13.4736 12.9396 13.4736V19.7904H9.3588V9.156H12.7908V10.6224C12.7908 10.6224 12.9324 10.1448 13.7232 9.5832C14.5128 9.0216 15.8232 8.8968 16.3848 8.9172C16.9464 8.9388 17.7156 8.8404 19.0044 9.7284C20.3832 10.6764 20.418 13.1592 20.418 13.1592V19.7892V19.7904ZM5.3184 7.8684C5.05413 7.86832 4.79246 7.81619 4.54833 7.71499C4.30421 7.61378 4.08241 7.46548 3.89559 7.27856C3.70878 7.09163 3.56061 6.86974 3.45956 6.62556C3.3585 6.38137 3.30652 6.11967 3.3066 5.8554C3.30668 5.59113 3.35881 5.32946 3.46001 5.08533C3.56122 4.84121 3.70952 4.61941 3.89644 4.43259C4.08337 4.24578 4.30526 4.09761 4.54944 3.99656C4.79363 3.8955 5.05533 3.84352 5.3196 3.8436C5.85332 3.8436 6.36518 4.05562 6.74258 4.43302C7.11998 4.81042 7.332 5.32228 7.332 5.856C7.332 6.38972 7.11998 6.90158 6.74258 7.27898C6.36518 7.65638 5.85332 7.8684 5.3196 7.8684H5.3184ZM7.0908 19.7904H3.5472V9.156H7.092V19.788L7.0908 19.7904ZM21.9576 0H1.9956C0.894 0 0 0.894 0 1.9956V22.0044C0 23.106 0.894 24 1.9956 24H21.9576C23.0592 24 23.9532 23.106 23.9532 22.0044V1.9956C23.952 0.894 23.0592 0 21.9576 0Z" fill="#7F8B94"/>
</g>
<g clip-path="url(#clip1_1_505)">
<path d="M84.2884 0H67.6804C65.6524 0 63.9844 1.632 63.9844 3.66V20.328C63.9844 22.368 65.6524 24 67.6804 24H84.3004C86.3284 24 87.9844 22.368 87.9964 20.34V3.66C87.9724 1.632 86.3164 0 84.2884 0ZM83.7244 10.416C82.2364 10.428 80.7484 9.96 79.5244 9.096C79.5244 10.98 79.5244 12.864 79.5484 14.748C79.5484 15 79.5604 15.252 79.5364 15.504C79.4764 16.428 79.1764 17.316 78.7204 18.12C78.3244 18.804 77.7844 19.428 77.1364 19.896C76.3084 20.508 75.2764 20.856 74.2444 20.88C73.7164 20.892 73.1884 20.868 72.6844 20.748C71.9644 20.592 71.2684 20.292 70.6684 19.872C70.6564 19.86 70.6324 19.848 70.6324 19.836C69.9844 19.38 69.4444 18.792 69.0484 18.108C68.5084 17.208 68.2324 16.14 68.2684 15.084C68.2924 14.112 68.5804 13.152 69.0844 12.324C69.5404 11.568 70.1884 10.92 70.9444 10.464C72.0364 9.792 73.3684 9.504 74.6404 9.684V10.404C74.6524 10.704 74.6404 11.004 74.6524 11.292V12.816C74.2684 12.684 73.8484 12.684 73.4524 12.78C72.9844 12.888 72.5284 13.092 72.1564 13.404C71.9284 13.596 71.7364 13.824 71.6044 14.088C71.3764 14.532 71.2924 15.048 71.3404 15.552C71.4004 16.032 71.6044 16.5 71.9164 16.872C72.1324 17.124 72.3964 17.34 72.6844 17.508C73.4644 17.94 74.4724 17.904 75.2284 17.424C75.9604 16.968 76.4284 16.14 76.4284 15.288V7.56C76.4404 6.084 76.4284 4.608 76.4404 3.132H79.4884C79.4764 3.396 79.5124 3.648 79.5604 3.912H79.5724C79.6564 4.344 79.8124 4.752 80.0164 5.148C80.3284 5.748 80.7844 6.288 81.3604 6.636C81.3964 6.66 81.4204 6.696 81.4564 6.72C81.8884 6.984 82.3564 7.188 82.8484 7.284C83.1364 7.344 83.4364 7.368 83.7244 7.38V10.416Z" fill="#7F8B94"/>
</g>
<g clip-path="url(#clip2_1_505)">
<path d="M140.772 11.0672V11.0401C140.767 11.0492 140.759 11.0583 140.754 11.0672H140.772ZM145.573 10.4766V11.4093C145.751 11.3798 146.022 11.3795 146.033 11.3256C146.081 11.0945 146.086 10.8396 146.031 10.6111C146.014 10.5409 145.76 10.5272 145.573 10.4766Z" fill="#7F8B94"/>
<path d="M139.996 0C133.379 0 127.996 5.38338 127.996 12C127.996 18.6166 133.379 24 139.996 24C146.613 24 151.996 18.6166 151.996 12C151.996 5.38338 146.613 0 139.996 0ZM147.654 9.4118C147.89 9.18847 148.293 9.30188 148.469 9.58606C148.653 9.88123 148.558 10.2925 148.232 10.4118C148.012 10.4922 147.75 10.5046 147.516 10.474C147.432 10.463 147.375 10.2381 147.276 10.0555C147.406 9.82467 147.485 9.57105 147.654 9.4118ZM137.368 10.9777C137.651 10.3391 137.968 9.71528 138.279 9.08955C138.31 9.02761 138.395 8.95496 138.457 8.95228C138.789 8.93861 139.123 8.94584 139.521 8.94584C139.242 9.52118 138.993 10.0349 138.771 10.4922C139.196 10.4694 139.609 10.4472 140.127 10.4193C139.768 11.1461 139.449 11.793 139.096 12.5094C139.38 12.5265 139.563 12.5375 139.818 12.5528C139.651 12.8807 139.528 13.1912 139.344 13.4606C139.2 13.6721 137.877 13.556 137.767 13.3268C137.706 13.1995 137.718 13.0113 137.758 12.8681C137.818 12.6576 137.931 12.4617 138.025 12.2614C138.114 12.0737 138.207 11.8882 138.331 11.6359C138.111 11.6359 137.941 11.6509 137.775 11.633C137.373 11.5895 137.205 11.3445 137.368 10.9777ZM131.437 13.319C131.379 13.1721 131.494 12.9627 131.511 12.7802C131.576 12.0954 131.642 11.4107 131.686 10.7247C131.701 10.4901 131.798 10.4265 132.013 10.4357C132.301 10.4477 132.591 10.4386 132.968 10.4386C132.739 11.8469 133 13.2847 132.054 14.552C131.822 14.1016 131.596 13.7236 131.437 13.319ZM134.826 13.9887C134.822 14.7282 134.353 15.1357 133.657 15.0279C133.195 14.9563 132.9 14.5716 132.935 14.0453C133.147 14.0349 133.365 14.0239 133.634 14.0105V8.963H134.803C134.812 9.07641 134.827 9.16676 134.827 9.25737C134.828 10.8346 134.833 12.4115 134.826 13.9887ZM136.383 14.541C135.963 14.0046 135.788 13.4515 135.721 12.8727C135.638 12.156 135.61 11.4332 135.546 10.7142C135.529 10.5209 135.573 10.4308 135.782 10.4373C136.931 10.4716 136.65 10.2365 136.781 11.3198C136.854 11.9308 136.916 12.5432 136.98 13.1552C136.987 13.2217 136.992 13.2997 136.964 13.3568C136.786 13.7338 136.599 14.1059 136.383 14.541ZM138.674 15.0351C138.12 15.0397 137.567 15.0383 137.013 15.0383C137.001 14.9946 136.988 14.9507 136.976 14.907C137.146 14.5759 137.31 14.2418 137.49 13.9158C137.522 13.8579 137.615 13.7952 137.677 13.7979C138.21 13.8225 138.742 13.8619 139.338 13.9011C139.148 14.2708 138.97 14.619 138.786 14.9643C138.767 14.9989 138.712 15.0346 138.674 15.0351ZM143.303 14.1453C143.276 15.2405 143.47 15.0338 142.446 15.0491C141.546 15.0625 140.647 15.0528 139.747 15.0509C139.611 15.0507 139.474 15.0383 139.27 15.0282C139.46 14.6485 139.614 14.3131 139.798 13.9957C139.842 13.9201 139.986 13.8735 140.088 13.8673C140.366 13.8499 140.644 13.8614 140.947 13.8614V10.5627C140.707 10.5113 140.305 10.5046 140.281 10.4056C140.199 10.0686 140.25 9.69893 140.25 9.30965C141.088 9.30965 141.893 9.30456 142.697 9.31877C142.767 9.32011 142.843 9.44397 142.901 9.52172C142.924 9.55174 142.907 9.61233 142.906 9.65925C142.903 9.90429 142.984 10.2064 142.869 10.3769C142.773 10.5212 142.449 10.5131 142.198 10.5799V13.8614C142.487 13.8614 142.753 13.8708 143.019 13.8584C143.233 13.848 143.308 13.9365 143.303 14.1453ZM147.336 15.0391C146.689 15.0198 146.301 14.6651 146.281 14.0327H147.356C147.356 13.608 147.378 13.2252 147.341 12.8485C147.331 12.7501 147.141 12.6003 147.027 12.5933C146.552 12.5643 146.075 12.5812 145.552 12.5812C145.552 13.2743 145.553 13.9362 145.552 14.5984C145.552 15.0509 145.552 15.0563 145.088 15.0523C144.225 15.0448 144.367 15.1501 144.356 14.3373C144.349 13.7665 144.355 13.1954 144.355 12.5751C144.043 12.5751 143.767 12.567 143.491 12.5777C143.292 12.5855 143.233 12.5016 143.222 12.3102C143.168 11.3922 143.163 11.3928 144.059 11.3812C144.14 11.3802 144.221 11.3716 144.34 11.3643V10.5826C144.307 10.5576 144.29 10.534 144.271 10.5319C143.614 10.4525 143.614 10.4528 143.613 9.76917V9.32118H144.312C144.341 9.19196 144.363 9.0933 144.391 8.96649H145.514C145.536 9.06676 145.56 9.17453 145.587 9.29812C146.133 9.29491 146.72 9.33324 146.982 9.85013C147.203 10.2863 147.23 10.8209 147.356 11.3684C147.321 11.3571 147.374 11.3815 147.43 11.3917C148.293 11.5488 148.565 11.871 148.566 12.7394C148.567 13.1836 148.582 13.6287 148.56 14.0719C148.528 14.6909 148.046 15.0603 147.336 15.0391Z" fill="#7F8B94"/>
</g>
<g clip-path="url(#clip3_1_505)">
<path d="M216 12C216 5.37273 210.627 0 204 0C197.373 0 192 5.37273 192 12C192 18.6273 197.373 24 204 24C210.627 24 216 18.6273 216 12ZM197.539 16.2644C197.746 16.2905 197.957 16.3047 198.171 16.3047C199.414 16.3069 200.557 15.8585 201.464 15.1058C200.303 15.0785 199.324 14.2582 198.987 13.1324C199.149 13.1662 199.316 13.1858 199.486 13.1869C199.728 13.188 199.961 13.1553 200.184 13.092C198.971 12.8236 198.057 11.6727 198.057 10.3015C198.057 10.2895 198.057 10.2775 198.057 10.2655C198.415 10.4815 198.823 10.6124 199.258 10.632C198.548 10.1182 198.08 9.24545 198.08 8.26364C198.08 7.74436 198.211 7.26 198.439 6.84545C199.747 8.57454 201.7 9.72218 203.903 9.86509C203.857 9.65891 203.834 9.444 203.834 9.22473C203.834 7.67455 205.021 6.43745 206.485 6.46145C207.248 6.47455 207.937 6.82473 208.42 7.37455C209.025 7.25891 209.592 7.03636 210.104 6.72545C209.906 7.37236 209.485 7.91127 208.937 8.24836C209.474 8.18836 209.985 8.04655 210.46 7.83164C210.105 8.38473 209.655 8.868 209.137 9.25418C209.143 9.37418 209.145 9.49418 209.145 9.61418C209.145 13.2949 206.477 17.5396 201.601 17.5375C200.105 17.5385 198.711 17.0695 197.539 16.2644Z" fill="#7F8B94"/>
</g>
<g clip-path="url(#clip4_1_505)">
<path d="M268.002 7.99805C265.798 7.99805 264 9.79626 264 11.9998C264 14.2032 265.798 16.0015 268.002 16.0015C270.205 16.0015 272.003 14.2032 272.003 11.9998C272.003 9.79626 270.205 7.99805 268.002 7.99805Z" fill="#7F8B94"/>
<path d="M280.003 12C280.003 10.3429 280.018 8.70077 279.925 7.04665C279.832 5.12536 279.394 3.4202 277.989 2.01525C276.581 0.607302 274.879 0.172008 272.957 0.0789456C271.3 -0.0141173 269.658 0.000892936 268.004 0.000892936C266.347 0.000892936 264.705 -0.0141173 263.051 0.0789456C261.129 0.172008 259.424 0.610305 258.019 2.01525C256.611 3.42321 256.176 5.12536 256.083 7.04665C255.99 8.70377 256.005 10.3459 256.005 12C256.005 13.6541 255.99 15.2992 256.083 16.9533C256.176 18.8746 256.614 20.5798 258.019 21.9847C259.427 23.3927 261.129 23.828 263.051 23.9211C264.708 24.0141 266.35 23.9991 268.004 23.9991C269.661 23.9991 271.303 24.0141 272.957 23.9211C274.879 23.828 276.584 23.3897 277.989 21.9847C279.397 20.5768 279.832 18.8746 279.925 16.9533C280.021 15.2992 280.003 13.6571 280.003 12ZM268.001 18.1572C264.594 18.1572 261.844 15.4073 261.844 12C261.844 8.5927 264.594 5.84284 268.001 5.84284C271.408 5.84284 274.158 8.5927 274.158 12C274.158 15.4073 271.408 18.1572 268.001 18.1572ZM274.41 7.02864C273.615 7.02864 272.972 6.38621 272.972 5.59067C272.972 4.79513 273.615 4.1527 274.41 4.1527C275.206 4.1527 275.848 4.79513 275.848 5.59067C275.845 6.38921 275.206 7.02864 274.41 7.02864Z" fill="#7F8B94"/>
</g>
<defs>
<clipPath id="clip0_1_505">
<rect width="24" height="24" fill="white"/>
</clipPath>
<clipPath id="clip1_1_505">
<rect width="24" height="24" fill="white" transform="translate(64)"/>
</clipPath>
<clipPath id="clip2_1_505">
<rect width="24" height="24" fill="white" transform="translate(128)"/>
</clipPath>
<clipPath id="clip3_1_505">
<rect width="24" height="24" fill="white" transform="translate(192)"/>
</clipPath>
<clipPath id="clip4_1_505">
<rect width="24" height="24" fill="white" transform="translate(256)"/>
</clipPath>
</defs>
</svg>
