<svg width="28" height="20" viewBox="0 0 28 20" fill="none" xmlns="http://www.w3.org/2000/svg">
<path d="M4.81163 20C2.77496 20 1.39703 17.9237 2.18819 16.047L3.26596 13.4904C3.73831 12.37 2.91566 11.1304 1.69973 11.1304C0.760993 11.1304 0 10.3694 0 9.43071V4C0 1.79086 1.79086 0 4 0H8.17391C10.3831 0 12.1739 1.79086 12.1739 4V9.9342C12.1739 10.7146 11.9456 11.478 11.5172 12.1303L7.19122 18.716C6.66482 19.5174 5.77043 20 4.81163 20ZM20.116 20C18.0793 20 16.7014 17.9237 17.4925 16.047L18.5703 13.4904C19.0427 12.37 18.22 11.1304 17.0041 11.1304C16.0653 11.1304 15.3043 10.3694 15.3043 9.43071V4C15.3043 1.79086 17.0952 0 19.3043 0H23.4783C25.6874 0 27.4783 1.79086 27.4783 4V9.9342C27.4783 10.7146 27.25 11.478 26.8215 12.1303L22.4956 18.716C21.9692 19.5174 21.0748 20 20.116 20Z" fill="#5886FF"/>
</svg>
