<svg width="83" height="60" viewBox="0 0 83 60" fill="none" xmlns="http://www.w3.org/2000/svg">
<path d="M13.6196 60C7.89665 60 4.02473 54.1658 6.24787 48.8923L9.7979 40.4713C11.2149 37.11 8.74696 33.3913 5.09918 33.3913C2.28298 33.3913 0 31.1083 0 28.2921V8C0 3.58172 3.58172 0 8 0H28.5217C32.94 0 36.5217 3.58172 36.5217 8V30.9988C36.5217 32.5597 36.0652 34.0864 35.2082 35.391L21.4134 56.3921C19.9342 58.6439 17.421 60 14.7269 60H13.6196ZM59.5326 60C53.8097 60 49.9378 54.1658 52.1609 48.8923L55.7109 40.4713C57.128 37.11 54.66 33.3913 51.0122 33.3913C48.196 33.3913 45.913 31.1083 45.913 28.2921V8C45.913 3.58172 49.4948 0 53.913 0H74.4348C78.8531 0 82.4348 3.58172 82.4348 8V30.9988C82.4348 32.5597 81.9782 34.0864 81.1213 35.391L67.3264 56.3921C65.8473 58.6439 63.334 60 60.6399 60H59.5326Z" fill="#5886FF"/>
</svg>
