<svg width="21" height="20" viewBox="0 0 21 20" fill="none" xmlns="http://www.w3.org/2000/svg">
<g clip-path="url(#clip0_1_500)">
<path d="M10.5 0C17.1667 0 20.5 3.33333 20.5 10C20.5 16.6667 17.1667 20 10.5 20C3.83333 20 0.5 16.6667 0.5 10C0.5 3.33333 3.83333 0 10.5 0Z" fill="#56BA63"/>
<path d="M10.4726 3.88867C12.0346 3.88867 13.5013 4.49801 14.604 5.60067C15.1478 6.14197 15.579 6.78576 15.8724 7.49479C16.1658 8.20382 16.3156 8.964 16.3133 9.73134C16.31 12.9513 13.6906 15.5707 10.4706 15.5707H10.4693C9.5576 15.57 8.65863 15.3566 7.84396 14.9473L4.39062 15.854L5.31663 12.4753C4.86643 11.6299 4.63129 10.6865 4.63196 9.72867C4.63329 6.50867 7.25329 3.88867 10.4726 3.88867ZM10.4706 4.81534C7.76263 4.81534 5.55729 7.01867 5.55729 9.72667C5.55608 10.5886 5.78237 11.4355 6.21329 12.182L6.31063 12.3493L5.70929 14.5473L7.96129 13.9567L8.12329 14.0447C8.84392 14.4359 9.65066 14.6414 10.4706 14.6427H10.4726C13.1806 14.6427 15.386 12.4393 15.3873 9.73001C15.3905 9.08445 15.2644 8.44478 15.0166 7.84867C14.7689 7.25252 14.4057 6.71125 13.948 6.25601C13.4926 5.79776 12.9508 5.43446 12.354 5.18716C11.7572 4.93985 11.1173 4.81347 10.4713 4.81534H10.4706Z" fill="white"/>
<path d="M13.0525 11.7283C12.9392 12.0416 12.3952 12.3283 12.1339 12.3683C11.8474 12.4161 11.5539 12.3974 11.2759 12.3136C11.0123 12.2335 10.7532 12.1392 10.4999 12.031C9.13385 11.449 8.24185 10.091 8.17319 10.0003C8.10519 9.91031 7.61719 9.27098 7.61719 8.60965C7.61719 7.94831 7.96852 7.62298 8.09252 7.48698C8.13839 7.43556 8.19441 7.3942 8.25706 7.36551C8.31971 7.33683 8.38763 7.32144 8.45652 7.32031C8.54852 7.32031 8.63852 7.32031 8.71785 7.32298C8.80052 7.32698 8.91385 7.29231 9.02452 7.55365C9.13785 7.82231 9.40985 8.48565 9.44385 8.55231C9.47785 8.61898 9.49985 8.69765 9.45452 8.78765C9.40985 8.87831 9.38585 8.93431 9.31785 9.01298C9.24919 9.09031 9.17519 9.18765 9.11385 9.24898C9.04585 9.31565 8.97519 9.38965 9.05452 9.52231C9.13385 9.65831 9.40785 10.0976 9.81319 10.4543C10.3332 10.9123 10.7712 11.0543 10.9085 11.121C11.0452 11.1876 11.1245 11.177 11.2039 11.087C11.2832 10.997 11.5439 10.6936 11.6345 10.559C11.7265 10.4236 11.8165 10.4476 11.9412 10.4923C12.0652 10.5376 12.7352 10.8616 12.8705 10.9303C13.0072 10.997 13.0972 11.031 13.1319 11.087C13.1652 11.1443 13.1652 11.413 13.0519 11.7283H13.0525Z" fill="white"/>
</g>
<defs>
<clipPath id="clip0_1_500">
<rect width="20" height="20" fill="white" transform="translate(0.5)"/>
</clipPath>
</defs>
</svg>
